<?xml version="1.0" standalone="no"?>
<!DOCTYPE svg PUBLIC "-//W3C//DTD SVG 20010904//EN"
 "http://www.w3.org/TR/2001/REC-SVG-20010904/DTD/svg10.dtd">
<svg version="1.0" xmlns="http://www.w3.org/2000/svg"
 width="190.000000pt" height="81.000000pt" viewBox="0 0 190.000000 81.000000"
 preserveAspectRatio="xMidYMid meet">

<g transform="translate(0.000000,81.000000) scale(0.100000,-0.100000)"
fill="#000000" stroke="none">
<path d="M386 574 c-11 -10 -16 -34 -16 -70 0 -80 -45 -117 -96 -80 -14 11
-20 30 -24 77 -5 65 -22 88 -54 76 -13 -5 -16 -21 -16 -82 l0 -75 -41 0 c-37
0 -41 3 -57 38 l-17 37 -3 -44 c-2 -30 2 -49 14 -62 17 -18 36 -19 493 -17
l476 3 0 100 0 100 -30 0 c-30 0 -30 -1 -35 -61 -6 -68 -28 -104 -65 -104 -37
0 -59 36 -65 104 -5 55 -7 61 -29 64 -31 5 -41 -12 -41 -75 0 -82 -48 -117
-101 -74 -19 15 -23 27 -21 66 2 58 -11 85 -42 85 -29 0 -36 -16 -36 -81 0
-56 -24 -89 -65 -89 -43 0 -65 33 -65 94 0 52 -16 86 -40 86 -5 0 -16 -7 -24
-16z"/>
<path d="M1336 578 c-59 -16 -121 -82 -135 -144 -22 -92 -7 -120 137 -266 179
-182 177 -182 368 14 100 103 122 131 133 170 43 153 -102 283 -247 222 -45
-19 -92 -62 -92 -85 0 -30 29 -29 64 2 19 16 49 34 67 39 79 23 160 -37 161
-120 1 -67 -15 -71 -70 -17 -52 51 -82 60 -82 25 0 -14 22 -45 57 -80 48 -49
56 -61 47 -76 -20 -31 -45 -26 -89 18 -28 28 -49 41 -59 37 -27 -11 -18 -39
26 -84 35 -36 41 -47 32 -61 -17 -26 -43 -26 -69 -2 -14 13 -31 20 -39 17 -20
-8 -21 -41 -1 -57 12 -10 13 -16 4 -26 -20 -24 -54 -15 -92 24 -33 34 -36 40
-22 52 19 15 19 34 2 49 -10 8 -22 5 -47 -14 -25 -19 -37 -22 -51 -14 -32 17
-21 42 46 109 36 35 65 70 65 76 0 6 -7 17 -16 24 -13 11 -24 4 -80 -51 -59
-59 -65 -62 -80 -47 -27 26 -29 107 -5 146 27 43 77 72 124 72 44 0 61 25 32
46 -21 16 -34 16 -89 2z"/>
<path d="M109 299 c-15 -5 -33 -24 -39 -40 -11 -26 -10 -34 7 -57 11 -15 40
-32 69 -41 37 -12 50 -21 52 -38 6 -41 -80 -44 -93 -2 -9 29 -45 25 -45 -5 0
-62 116 -91 165 -41 50 50 20 116 -61 131 -43 8 -61 28 -44 49 19 23 46 18 69
-11 23 -29 51 -26 51 5 0 40 -80 70 -131 50z"/>
<path d="M1017 304 c-4 -4 -7 -25 -7 -47 0 -33 -3 -38 -17 -32 -40 16 -54 17
-78 1 -71 -46 -46 -176 33 -176 15 0 34 6 40 12 10 10 15 10 21 -1 5 -8 16
-11 25 -8 14 6 16 23 14 128 -3 114 -10 143 -31 123z m-29 -116 c17 -17 15
-74 -4 -93 -36 -35 -81 35 -54 85 12 22 40 26 58 8z"/>
<path d="M323 230 c-31 -13 -49 -48 -28 -56 9 -4 24 1 34 10 22 20 57 21 65 1
4 -10 -3 -17 -22 -21 -52 -11 -67 -16 -79 -26 -16 -13 -17 -60 -1 -76 14 -14
67 -16 88 -2 9 5 19 5 27 -2 7 -5 19 -8 27 -5 17 7 10 145 -8 165 -16 17 -75
24 -103 12z m66 -121 c-14 -27 -36 -34 -54 -19 -19 16 -4 37 28 42 32 6 38 -1
26 -23z"/>
<path d="M485 217 c-3 -12 -5 -54 -3 -92 3 -62 5 -70 23 -70 17 0 21 8 25 64
6 71 25 96 54 72 12 -10 16 -31 16 -77 0 -57 2 -64 20 -64 18 0 20 7 20 80 0
75 -2 81 -26 97 -22 14 -31 15 -57 5 -21 -8 -33 -9 -35 -2 -7 19 -32 10 -37
-13z"/>
<path d="M725 231 c-28 -12 -48 -38 -40 -51 9 -15 31 -12 45 5 18 22 62 20 58
-2 -2 -11 -18 -20 -42 -25 -22 -5 -45 -13 -53 -19 -16 -14 -17 -61 -1 -77 14
-14 67 -16 88 -2 9 5 19 5 27 -2 7 -5 19 -8 27 -5 17 7 10 145 -8 165 -16 16
-75 24 -101 13z m62 -124 c-17 -26 -52 -34 -60 -13 -7 17 9 32 38 38 30 7 38
-2 22 -25z"/>
</g>
</svg>
